<?xml version="1.0" encoding="UTF-8"?>
<svg width="18px" height="24px" viewBox="0 0 18 24" version="1.1" xmlns="http://www.w3.org/2000/svg" xmlns:xlink="http://www.w3.org/1999/xlink">
    <!-- Generator: Sketch 46.2 (44496) - http://www.bohemiancoding.com/sketch -->
    <title>ic_retake_24px</title>
    <desc>Created with Sketch.</desc>
    <defs></defs>
    <g id="Onboarding-Update-v2" stroke="none" stroke-width="1" fill="none" fill-rule="evenodd">
        <g id="Test-Onboard-pg1" transform="translate(-331.000000, -347.000000)" fill-rule="nonzero" fill="#E80A89">
            <g id="ic_retake_24px" transform="translate(331.000000, 347.000000)">
                <path d="M9.33333333,5.57011796 L9.33333333,8.91218873 L14,4.45609436 L9.33333333,0 L9.33333333,3.34207077 C4.17666667,3.34207077 0,7.33027523 0,12.2542595 C0,14.0032765 0.536666667,15.629751 1.44666667,17 L3.15,15.3735256 C2.625,14.448886 2.33333333,13.3794233 2.33333333,12.2542595 C2.33333333,8.56684142 5.47166667,5.57011796 9.33333333,5.57011796 Z M16.5533333,7 L14.85,8.62647444 C15.3633333,9.56225426 15.6666667,10.6205767 15.6666667,11.7457405 C15.6666667,15.4331586 12.5283333,18.429882 8.66666667,18.429882 L8.66666667,15.0878113 L4,19.5439056 L8.66666667,24 L8.66666667,20.6579292 C13.8233333,20.6579292 18,16.6697248 18,11.7457405 C18,9.99672346 17.4633333,8.37024902 16.5533333,7 L16.5533333,7 Z"></path>
            </g>
        </g>
    </g>
</svg>